<svg xmlns="http://www.w3.org/2000/svg" version="1.1" xmlns:xlink="http://www.w3.org/1999/xlink" xmlns:svgjs="http://svgjs.dev/svgjs" viewBox="0 0 34.06375744823437 9.50645988285339"><g transform="matrix(1,0,0,1,12.007554682710998,1.4380131445516953)"><g><path d=" M 1.3275000000000001 2.0475 C 1.5750000000000002 1.9034999999999997 1.7640000000000002 1.6109999999999998 1.7685000000000002 1.3634999999999997 L 1.7685000000000002 1.3455 C 1.7685000000000002 1.1115 1.5795000000000001 0.7514999999999996 1.1205 0.7514999999999996 C 1.1205 0.6614999999999998 1.026 0.6119999999999997 0.8550000000000001 0.6119999999999997 C 0.47250000000000003 0.6119999999999997 0.4635000000000001 0.7379999999999995 0.4635000000000001 0.7244999999999995 C 0.42300000000000004 0.7424999999999997 0.405 0.8144999999999998 0.405 0.8549999999999995 C 0.23850000000000002 1.7414999999999998 0.013500000000000002 2.6505 0.013500000000000002 3.447 L 0.013500000000000002 3.483 C 0.013500000000000002 3.6855 0.018000000000000002 3.924 0.15750000000000003 3.924 C 0.135 3.8970000000000002 0.1305 3.8835 0.1305 3.8745000000000003 C 0.135 3.8745000000000003 0.18000000000000002 3.888 0.198 3.906 C 0.198 3.8925 0.18450000000000003 3.8835 0.18000000000000002 3.879 C 0.19350000000000003 3.888 0.198 3.8970000000000002 0.20700000000000002 3.8970000000000002 C 0.21150000000000002 3.8970000000000002 0.23400000000000004 3.8970000000000002 0.22950000000000004 3.8925 C 0.21150000000000002 3.8745000000000003 0.171 3.8385000000000002 0.1665 3.8205 C 0.198 3.8205 0.23400000000000004 3.8970000000000002 0.2655 3.906 C 0.261 3.8925 0.2565 3.8745000000000003 0.24300000000000002 3.861 C 0.261 3.861 0.2745 3.87 0.29250000000000004 3.879 C 0.28350000000000003 3.861 0.2655 3.852 0.2655 3.834 C 0.27 3.825 0.28800000000000003 3.816 0.31050000000000005 3.816 C 0.342 3.8475 0.36000000000000004 3.861 0.36900000000000005 3.861 C 0.38250000000000006 3.861 0.38700000000000007 3.843 0.38700000000000007 3.834 C 0.41400000000000003 3.8385000000000002 0.48150000000000004 3.8655 0.49500000000000005 3.8655 C 0.49500000000000005 3.8655 0.4590000000000001 3.8385000000000002 0.4590000000000001 3.8295 C 0.4590000000000001 3.8295 0.48150000000000004 3.8385000000000002 0.48600000000000004 3.8385000000000002 C 0.48600000000000004 3.8385000000000002 0.48150000000000004 3.8295 0.48150000000000004 3.825 C 0.48600000000000004 3.825 0.49050000000000005 3.834 0.504 3.834 C 0.5085000000000001 3.834 0.5670000000000001 3.852 0.5985 3.852 C 0.5985 3.8475 0.6030000000000001 3.843 0.6075 3.843 C 0.6435000000000001 3.843 0.6705000000000001 3.843 0.6705000000000001 3.8115 C 0.6705000000000001 3.8115 0.7245 3.843 0.7515000000000001 3.843 C 0.7200000000000001 3.8115 0.675 3.7125 0.675 3.6405 C 0.675 3.6225 0.6795000000000001 3.6135 0.684 3.591 C 0.684 3.6270000000000002 0.6975000000000001 3.744 0.7290000000000001 3.771 C 0.7290000000000001 3.7665 0.7650000000000001 3.8205 0.7785000000000001 3.825 C 0.7290000000000001 3.762 0.7245 3.654 0.7245 3.5505 L 0.7245 3.474 C 0.7245 3.4425 0.7245 3.429 0.7335 3.3975 C 0.7380000000000001 3.4065 0.7875000000000001 3.4065 0.7965000000000001 3.4154999999999998 C 0.7965000000000001 3.4154999999999998 0.7650000000000001 3.42 0.7650000000000001 3.4335 C 0.7830000000000001 3.4245 0.801 3.4245 0.8280000000000001 3.4245 C 0.8280000000000001 3.4335 0.8145000000000001 3.438 0.8055000000000001 3.4425 C 0.7965000000000001 3.4425 0.792 3.4515000000000002 0.792 3.456 L 0.8325000000000001 3.438 C 0.8460000000000001 3.438 0.8460000000000001 3.4605 0.8550000000000001 3.4605 C 0.8775000000000001 3.4605 0.8820000000000001 3.465 0.9000000000000001 3.474 C 0.8865000000000001 3.4785 0.8820000000000001 3.483 0.8820000000000001 3.483 C 0.8820000000000001 3.483 0.8955000000000001 3.5055 0.9225000000000001 3.5055 C 0.9270000000000002 3.5055 0.9360000000000002 3.5055 0.9450000000000001 3.501 C 0.9540000000000001 3.4965 0.9630000000000001 3.4875 0.9675000000000001 3.4875 C 0.9810000000000001 3.4875 0.9675000000000001 3.501 0.9855000000000002 3.5055 C 0.9855000000000002 3.5145 0.9900000000000001 3.519 0.9900000000000001 3.519 C 0.9765000000000001 3.519 0.9765000000000001 3.5235 0.9765000000000001 3.528 C 0.9765000000000001 3.5325 0.9990000000000001 3.519 1.0125000000000002 3.519 C 1.0215 3.519 1.026 3.5235 1.026 3.5325 C 1.044 3.528 1.0575 3.5235 1.0710000000000002 3.5235 C 1.08 3.5235 1.0215 3.555 0.9945000000000002 3.5595 L 1.026 3.5595 C 1.0350000000000001 3.5595 1.0485000000000002 3.564 1.0530000000000002 3.5685000000000002 C 1.0845 3.5595 1.1070000000000002 3.555 1.1250000000000002 3.555 C 1.1250000000000002 3.555 1.1430000000000002 3.5595 1.179 3.5595 C 1.3410000000000002 3.5595 1.8180000000000003 3.501 1.9530000000000003 2.889 L 1.9530000000000003 2.8754999999999997 C 1.9485000000000001 2.8754999999999997 1.9170000000000003 2.997 1.8900000000000001 3.0060000000000002 C 1.9125000000000003 2.934 1.9395000000000002 2.8575 1.9395000000000002 2.7809999999999997 C 1.9395000000000002 2.6505 1.8945000000000003 2.529 1.8135000000000001 2.4029999999999996 C 1.9035000000000002 2.5155 1.9530000000000003 2.6505 1.9575000000000002 2.8305 C 1.9575000000000002 2.8125 1.9665000000000001 2.79 1.9665000000000001 2.7720000000000002 C 1.9665000000000001 2.3985 1.6830000000000003 2.1464999999999996 1.3275000000000001 2.0475 M 1.5345000000000002 2.763 C 1.5030000000000001 3.078 1.1385 3.2535 0.7380000000000001 3.258 C 0.7695000000000001 2.925 0.8190000000000001 2.6325 0.8685 2.3175 C 0.8910000000000001 2.3175 0.9135000000000001 2.3129999999999997 0.9360000000000002 2.3129999999999997 C 1.2510000000000001 2.3129999999999997 1.5345000000000002 2.5065 1.5345000000000002 2.7314999999999996 M 1.0935000000000001 1.0214999999999996 C 1.116 1.017 1.1340000000000001 1.017 1.1520000000000001 1.017 C 1.3230000000000002 1.017 1.4715000000000003 1.1519999999999997 1.4715000000000003 1.3364999999999996 C 1.4715000000000003 1.5884999999999998 1.2195000000000003 1.8135 0.9540000000000001 1.8629999999999998 C 0.9855000000000002 1.5704999999999996 1.0575 1.3094999999999999 1.0935000000000001 1.0214999999999996 M 2.897989013671875 3.8970000000000002 C 2.9024890136718753 3.8835 2.915989013671875 3.8835 2.915989013671875 3.8835 C 2.744989013671875 3.582 2.704489013671875 3.132 2.704489013671875 2.7405 C 2.704489013671875 2.583 2.708989013671875 2.4345 2.717989013671875 2.3084999999999996 C 3.046489013671875 1.7234999999999996 3.361489013671875 0.9989999999999997 3.433489013671875 0.27899999999999947 C 3.433489013671875 0.26549999999999985 3.437989013671875 0.2564999999999995 3.437989013671875 0.24299999999999944 C 3.437989013671875 0.11699999999999955 3.334489013671875 -4.440892098500626e-16 3.2309890136718753 -4.440892098500626e-16 C 3.203989013671875 -4.440892098500626e-16 3.172489013671875 0.008999999999999453 3.145489013671875 0.02699999999999969 C 2.9249890136718752 0.07649999999999979 2.857489013671875 0.1349999999999998 2.704489013671875 0.30149999999999944 C 2.375989013671875 0.6524999999999999 2.177989013671875 1.7685 2.177989013671875 2.583 C 2.177989013671875 3.0285 2.2319890136718747 3.501 2.470489013671875 3.888 C 2.474989013671875 3.87 2.492989013671875 3.861 2.501989013671875 3.861 C 2.546989013671875 3.861 2.591989013671875 3.8925 2.636989013671875 3.8925 C 2.636989013671875 3.8925 2.686489013671875 3.8835 2.708989013671875 3.8835 C 2.717989013671875 3.888 2.726989013671875 3.8925 2.726989013671875 3.8970000000000002 C 2.726989013671875 3.8970000000000002 2.780989013671875 3.852 2.830489013671875 3.852 C 2.861989013671875 3.852 2.875489013671875 3.8970000000000002 2.897989013671875 3.8970000000000002 M 3.172489013671875 0.2969999999999997 C 3.172489013671875 0.6524999999999999 2.884489013671875 1.521 2.744989013671875 1.8404999999999998 L 2.744989013671875 1.8179999999999998 C 2.771989013671875 1.4804999999999997 3.014989013671875 0.38699999999999957 3.172489013671875 0.2969999999999997 M 2.339989013671875 2.601 C 2.321989013671875 2.6775 2.312989013671875 2.7405 2.312989013671875 2.799 C 2.312989013671875 3.231 2.380489013671875 3.3885 2.407489013671875 3.456 C 2.407489013671875 3.4605 2.420989013671875 3.483 2.420989013671875 3.4875 C 2.425489013671875 3.528 2.483989013671875 3.591 2.488489013671875 3.618 C 2.488489013671875 3.6315 2.488489013671875 3.636 2.479489013671875 3.645 C 2.479489013671875 3.609 2.461489013671875 3.5865 2.461489013671875 3.5775 C 2.461489013671875 3.5865 2.452489013671875 3.5865 2.452489013671875 3.5865 L 2.483989013671875 3.69 C 2.483989013671875 3.6945 2.461489013671875 3.654 2.447989013671875 3.636 C 2.4434890136718748 3.636 2.438989013671875 3.618 2.438989013671875 3.6225 C 2.438989013671875 3.609 2.434489013671875 3.591 2.420989013671875 3.582 C 2.393989013671875 3.5415 2.384989013671875 3.483 2.357989013671875 3.4335 C 2.335489013671875 3.4245 2.330989013671875 3.402 2.3264890136718748 3.3795 C 2.3264890136718748 3.375 2.339989013671875 3.3885 2.3489890136718747 3.3885 C 2.335489013671875 3.3885 2.317489013671875 3.123 2.299489013671875 3.123 C 2.294989013671875 3.1275 2.290489013671875 3.1365 2.290489013671875 3.15 C 2.290489013671875 3.1905 2.3264890136718748 3.267 2.3264890136718748 3.312 C 2.3264890136718748 3.321 2.285989013671875 3.276 2.285989013671875 3.258 C 2.285989013671875 3.258 2.290489013671875 3.2355 2.290489013671875 3.2264999999999997 C 2.290489013671875 3.1995 2.285989013671875 3.141 2.2679890136718748 3.1365 C 2.2679890136718748 3.1365 2.263489013671875 3.1275 2.263489013671875 3.1185 C 2.263489013671875 3.114 2.2679890136718748 3.1094999999999997 2.272489013671875 3.1094999999999997 C 2.276989013671875 3.105 2.276989013671875 3.1005 2.276989013671875 3.096 C 2.276989013671875 3.0869999999999997 2.272489013671875 3.0825 2.2679890136718748 3.0645 C 2.2679890136718748 3.0645 2.272489013671875 3.0555 2.272489013671875 3.051 C 2.272489013671875 2.988 2.240989013671875 2.9115 2.240989013671875 2.8485 L 2.240989013671875 2.8034999999999997 C 2.240989013671875 2.7855 2.245489013671875 2.7809999999999997 2.2544890136718747 2.7765 C 2.249989013671875 2.7809999999999997 2.249989013671875 2.7855 2.249989013671875 2.79 C 2.249989013671875 2.7945 2.249989013671875 2.799 2.2544890136718747 2.8034999999999997 L 2.2544890136718747 2.817 C 2.258989013671875 2.826 2.258989013671875 2.844 2.258989013671875 2.862 L 2.258989013671875 2.8845 C 2.2679890136718748 2.8665 2.272489013671875 2.862 2.272489013671875 2.8529999999999998 L 2.2679890136718748 2.7945 L 2.2679890136718748 2.7809999999999997 C 2.2679890136718748 2.7809999999999997 2.272489013671875 2.7855 2.276989013671875 2.7855 C 2.276989013671875 2.7584999999999997 2.2679890136718748 2.745 2.2679890136718748 2.7405 C 2.2679890136718748 2.7359999999999998 2.2679890136718748 2.7314999999999996 2.281489013671875 2.7314999999999996 C 2.285989013671875 2.7495 2.290489013671875 2.7675 2.290489013671875 2.7809999999999997 C 2.290489013671875 2.79 2.285989013671875 2.799 2.281489013671875 2.808 L 2.285989013671875 2.8395 C 2.285989013671875 2.8529999999999998 2.281489013671875 2.8754999999999997 2.2679890136718748 2.88 C 2.272489013671875 2.9025 2.285989013671875 2.961 2.285989013671875 2.9835 L 2.285989013671875 3.024 C 2.285989013671875 3.051 2.290489013671875 3.0465 2.290489013671875 3.0825 L 2.290489013671875 3.1185 C 2.294989013671875 3.105 2.299489013671875 3.105 2.303989013671875 3.105 C 2.303989013671875 3.069 2.303989013671875 3.042 2.294989013671875 2.9115 L 2.294989013671875 2.79 C 2.294989013671875 2.763 2.303989013671875 2.7359999999999998 2.303989013671875 2.7045 C 2.303989013671875 2.682 2.308489013671875 2.646 2.321989013671875 2.6325 C 2.321989013671875 2.628 2.312989013671875 2.6189999999999998 2.312989013671875 2.6144999999999996 M 4.540585693359375 2.1375 L 4.437085693359375 2.133 L 4.536085693359375 2.106 C 4.522585693359375 2.106 4.513585693359375 2.1105 4.500085693359376 2.1105 C 4.302085693359375 2.1239999999999997 4.248085693359375 2.1285 4.054585693359375 2.214 C 4.0500856933593745 2.214 4.045585693359375 2.2184999999999997 4.041085693359375 2.2184999999999997 C 3.942085693359375 2.259 3.856585693359375 2.2995 3.757585693359375 2.3175 C 3.748585693359375 2.3084999999999996 3.735085693359375 2.304 3.721585693359375 2.304 C 3.708085693359375 2.304 3.694585693359375 2.3129999999999997 3.694585693359375 2.3265 C 3.694585693359375 2.331 3.708085693359375 2.349 3.712585693359375 2.3625 C 3.712585693359375 2.376 3.699085693359375 2.385 3.699085693359375 2.394 L 3.699085693359375 2.4345 C 3.690085693359375 2.745 3.591085693359375 3.033 3.4110856933593747 3.294 C 3.397585693359375 3.2445 3.393085693359375 3.1995 3.393085693359375 3.15 C 3.393085693359375 3.0645 3.4110856933593747 2.9745 3.424585693359375 2.8979999999999997 C 3.429085693359375 2.8845 3.429085693359375 2.8754999999999997 3.429085693359375 2.862 C 3.510085693359375 2.466 3.7035856933593747 2.1149999999999998 3.978085693359375 1.9889999999999999 C 4.000585693359375 1.9889999999999999 4.018585693359375 1.9979999999999998 4.045585693359375 1.9979999999999998 C 4.054585693359375 1.9979999999999998 4.063585693359375 1.9979999999999998 4.0770856933593755 1.9934999999999998 C 4.086085693359375 1.9845 4.090585693359375 1.9754999999999998 4.090585693359375 1.9665 C 4.090585693359375 1.908 3.879085693359375 1.8764999999999998 3.834085693359375 1.8764999999999998 L 3.793585693359375 1.8764999999999998 C 3.325585693359375 1.8764999999999998 3.051085693359375 2.6055 3.051085693359375 3.0195 C 3.051085693359375 3.1905 3.096085693359375 3.4785 3.316585693359375 3.4965 C 3.334585693359375 3.4965 3.357085693359375 3.501 3.3750856933593747 3.501 C 3.402085693359375 3.501 3.420085693359375 3.4965 3.438085693359375 3.492 C 3.699085693359375 3.366 3.663085693359375 3.303 3.721585693359375 3.1905 C 3.7755856933593748 3.141 3.816085693359375 2.8125 3.816085693359375 2.7359999999999998 C 3.816085693359375 2.637 3.802585693359375 2.5425 3.784585693359375 2.4255 L 3.7980856933593747 2.421 C 3.816085693359375 2.4255 3.793585693359375 2.4345 3.829585693359375 2.4345 C 3.888085693359375 2.4345 4.009585693359375 2.4165 4.032085693359375 2.3804999999999996 C 4.0500856933593745 2.376 4.054585693359375 2.3715 4.063585693359375 2.3579999999999997 C 4.063585693359375 2.34 4.126585693359375 2.3354999999999997 4.153585693359375 2.2995 C 4.176085693359375 2.2995 4.212085693359375 2.2904999999999998 4.212085693359375 2.268 C 4.234585693359375 2.268 4.252585693359375 2.2455 4.257085693359375 2.2409999999999997 C 4.257085693359375 2.2409999999999997 4.252585693359375 2.2455 4.252585693359375 2.25 C 4.315585693359375 2.2275 4.4055856933593756 2.1825 4.495585693359375 2.1825 L 4.486585693359375 2.16 M 4.333585693359375 2.187 C 4.365085693359375 2.1825 4.4055856933593756 2.1734999999999998 4.437085693359375 2.1734999999999998 C 4.4505856933593755 2.1734999999999998 4.459585693359375 2.1734999999999998 4.468585693359375 2.178 C 4.428085693359375 2.178 4.383085693359375 2.187 4.338085693359375 2.2005 M 4.387585693359375 2.151 C 4.3785856933593745 2.151 4.374085693359375 2.151 4.369585693359375 2.1464999999999996 C 4.387585693359375 2.1464999999999996 4.401085693359375 2.142 4.410085693359375 2.133 C 4.419085693359375 2.133 4.423585693359375 2.133 4.423585693359375 2.1375 C 4.423585693359375 2.1464999999999996 4.396585693359375 2.151 4.387585693359375 2.151 M 4.297585693359375 2.178 C 4.297585693359375 2.187 4.293085693359375 2.1914999999999996 4.288585693359375 2.1914999999999996 L 4.270585693359375 2.1914999999999996 C 4.270585693359375 2.178 4.293085693359375 2.178 4.297585693359375 2.178 M 4.302085693359375 2.205 C 4.302085693359375 2.2184999999999997 4.297585693359375 2.2184999999999997 4.288585693359375 2.2184999999999997 C 4.288585693359375 2.205 4.297585693359375 2.205 4.302085693359375 2.205 M 4.315585693359375 2.205 C 4.315585693359375 2.1959999999999997 4.320085693359375 2.1914999999999996 4.324585693359375 2.187 C 4.324585693359375 2.2005 4.320085693359375 2.205 4.315585693359375 2.205 M 6.263997802734375 2.4074999999999998 C 6.259497802734375 2.4029999999999996 6.259497802734375 2.3985 6.259497802734375 2.394 C 6.259497802734375 2.376 6.2819978027343755 2.3579999999999997 6.295497802734375 2.3445 C 6.299997802734375 2.34 6.259497802734375 2.3715 6.245997802734375 2.394 C 6.227997802734375 2.394 6.2369978027343755 2.4165 6.227997802734375 2.4255 C 6.227997802734375 2.4345 6.223497802734375 2.439 6.223497802734375 2.4435 C 6.223497802734375 2.4345 6.214497802734375 2.4345 6.214497802734375 2.4345 C 6.205497802734375 2.4345 6.227997802734375 2.4165 6.218997802734375 2.4165 C 6.227997802734375 2.4074999999999998 6.223497802734375 2.394 6.232497802734375 2.3895 C 6.2369978027343755 2.385 6.2099978027343745 2.3985 6.205497802734375 2.3985 C 6.205497802734375 2.3985 6.223497802734375 2.3715 6.223497802734375 2.3804999999999996 L 6.241497802734376 2.3804999999999996 C 6.241497802734376 2.3715 6.245997802734375 2.367 6.245997802734375 2.367 C 6.245997802734375 2.3625 6.2549978027343744 2.3445 6.263997802734375 2.3445 C 6.263997802734375 2.3265 6.245997802734375 2.3354999999999997 6.245997802734375 2.3265 C 6.245997802734375 2.3175 6.263997802734375 2.322 6.272997802734375 2.3129999999999997 C 6.286497802734376 2.2995 6.2819978027343755 2.277 6.313497802734375 2.277 L 6.331497802734376 2.277 C 6.340497802734375 2.2725 6.308997802734375 2.2725 6.308997802734375 2.2634999999999996 C 6.308997802734375 2.259 6.245997802734375 2.277 6.245997802734375 2.304 C 6.2549978027343744 2.304 6.259497802734375 2.3084999999999996 6.259497802734375 2.3084999999999996 C 6.250497802734375 2.3084999999999996 6.2369978027343755 2.3129999999999997 6.2369978027343755 2.322 C 6.223497802734375 2.322 6.227997802734375 2.3265 6.214497802734375 2.3265 C 6.214497802734375 2.2859999999999996 6.263997802734375 2.268 6.277497802734375 2.2409999999999997 L 6.322497802734375 2.1555 C 6.088497802734375 2.2634999999999996 5.818497802734375 2.4524999999999997 5.615997802734375 2.6055 C 5.606997802734375 2.412 5.593497802734375 2.1105 5.593497802734375 2.0385 C 5.593497802734375 2.0069999999999997 5.602497802734375 1.9754999999999998 5.602497802734375 1.9485 C 5.588997802734375 1.8179999999999998 5.449497802734375 1.8044999999999998 5.332497802734375 1.8044999999999998 C 4.805997802734375 1.8044999999999998 4.220997802734375 2.322 4.220997802734375 2.7045 C 4.220997802734375 2.8034999999999997 4.315497802734375 2.871 4.4054978027343745 2.871 C 4.441497802734375 2.871 4.463997802734375 2.8529999999999998 4.486497802734375 2.8529999999999998 C 4.495497802734375 2.8529999999999998 4.4999978027343746 2.862 4.508997802734375 2.862 C 4.769997802734375 2.862 5.1794978027343745 2.385 5.314497802734375 2.322 C 5.3189978027343745 2.4074999999999998 5.3189978027343745 2.4885 5.3189978027343745 2.5694999999999997 L 5.3189978027343745 2.817 C 5.080497802734375 3.0735 4.6394978027343745 3.6225 4.436997802734375 4.131 C 4.409997802734375 4.131 4.3334978027343745 4.392 4.324497802734375 4.4595 C 4.337997802734375 4.437 4.391997802734375 4.2165 4.432497802734375 4.212 C 4.432497802734375 4.221 4.423497802734375 4.23 4.423497802734375 4.239 C 4.436997802734375 4.239 4.432497802734375 4.212 4.445997802734375 4.212 C 4.432497802734375 4.2705 4.391997802734375 4.3515 4.391997802734375 4.41 C 4.391997802734375 4.4145 4.382997802734375 4.473 4.382997802734375 4.5 C 4.382997802734375 4.5405 4.382997802734375 4.5855 4.391997802734375 4.6125 C 4.391997802734375 4.6305000000000005 4.391997802734375 4.6530000000000005 4.382997802734375 4.6530000000000005 C 4.373997802734375 4.644 4.364997802734375 4.6395 4.364997802734375 4.644 L 4.364997802734375 4.671 C 4.360497802734375 4.6845 4.328997802734375 4.689 4.328997802734375 4.689 C 4.328997802734375 4.6935 4.3334978027343745 4.707 4.3334978027343745 4.716 C 4.319997802734375 4.7115 4.315497802734375 4.698 4.3109978027343745 4.698 C 4.301997802734375 4.698 4.297497802734375 4.698 4.297497802734375 4.702500000000001 C 4.297497802734375 4.702500000000001 4.306497802734375 4.7385 4.306497802734375 4.7565 C 4.306497802734375 4.7655 4.301997802734375 4.7700000000000005 4.301997802734375 4.7745 C 4.292997802734375 4.7655 4.292997802734375 4.752 4.283997802734374 4.734 C 4.283997802734374 4.7295 4.283997802734374 4.7250000000000005 4.274997802734375 4.7250000000000005 L 4.274997802734375 4.743 C 4.274997802734375 4.743 4.265997802734375 4.752 4.265997802734375 4.7565 C 4.265997802734375 4.8375 4.328997802734375 4.896 4.396497802734375 4.9275 C 4.396497802734375 4.923 4.400997802734375 4.923 4.400997802734375 4.914 C 4.4054978027343745 4.914 4.4279978027343745 4.923 4.436997802734375 4.9275 C 4.468497802734375 4.941000000000001 4.504497802734375 4.9455 4.535997802734375 4.9455 C 4.607997802734375 4.9455 4.675497802734375 4.9185 4.715997802734375 4.896 C 5.309997802734375 4.5045 5.588997802734375 3.87 5.624997802734375 2.997 C 5.674497802734375 2.8485 6.263997802734375 2.4795 6.263997802734375 2.4074999999999998 M 4.535997802734375 4.662 C 4.553997802734375 4.221 5.039997802734375 3.6315 5.273997802734375 3.2984999999999998 C 5.242497802734375 3.6675 4.837497802734375 4.4595 4.535997802734375 4.662 M 4.657497802734375 2.502 C 4.814997802734375 2.3084999999999996 5.107497802734375 2.0385 5.260497802734375 1.9799999999999998 C 5.057997802734375 2.1464999999999996 4.886997802734375 2.3579999999999997 4.657497802734375 2.502 M 5.341497802734375 4.113 C 5.287497802734375 4.221 5.210997802734375 4.329 5.147997802734375 4.4235 C 5.138997802734375 4.4325 5.080497802734375 4.5135000000000005 5.057997802734375 4.5135000000000005 C 5.057997802734375 4.518 5.062497802734375 4.5225 5.062497802734375 4.527 C 5.062497802734375 4.5315 5.057997802734375 4.5315 5.048997802734375 4.5315 C 5.048997802734375 4.5405 5.026497802734375 4.554 5.017497802734375 4.563000000000001 C 5.026497802734375 4.5405 5.039997802734375 4.5225 5.039997802734375 4.518 C 5.030997802734375 4.518 5.071497802734375 4.4865 5.080497802734375 4.464 C 5.089497802734375 4.4595 5.089497802734375 4.4505 5.089497802734375 4.4415000000000004 L 5.057997802734375 4.482 C 5.057997802734375 4.464 5.080497802734375 4.4505 5.089497802734375 4.4325 C 5.093997802734375 4.437 5.098497802734375 4.4415000000000004 5.102997802734375 4.4415000000000004 C 5.098497802734375 4.4415000000000004 5.098497802734375 4.446 5.098497802734375 4.4505 C 5.116497802734375 4.4415000000000004 5.116497802734375 4.4145 5.1299978027343744 4.41 C 5.120997802734375 4.41 5.120997802734375 4.4145 5.116497802734375 4.4145 C 5.1299978027343744 4.3740000000000006 5.210997802734375 4.311 5.210997802734375 4.2525 L 5.242497802734375 4.221 C 5.242497802734375 4.212 5.273997802734375 4.167 5.287497802734375 4.158 C 5.287497802734375 4.167 5.282997802734375 4.167 5.278497802734375 4.1715 L 5.278497802734375 4.194 C 5.282997802734375 4.1985 5.296497802734375 4.158 5.300997802734375 4.149 C 5.3189978027343745 4.0815 5.368497802734375 4.0275 5.399997802734375 3.96 C 5.3909978027343755 4.0095 5.368497802734375 4.068 5.341497802734375 4.113 M 4.414497802734375 4.0995 C 4.391997802734375 4.1625 4.355997802734374 4.221 4.342497802734375 4.2885 C 4.355997802734374 4.2525 4.373997802734375 4.221 4.391997802734375 4.1895 C 4.391997802734375 4.1535 4.414497802734375 4.131 4.423497802734375 4.1085 C 4.423497802734375 4.1085 4.423497802734375 4.0995 4.414497802734375 4.0995 M 4.976997802734375 4.6530000000000005 C 4.949997802734375 4.662 4.936497802734375 4.6935 4.918497802734375 4.6935 L 4.985997802734375 4.6305000000000005 C 4.985997802734375 4.635 4.976997802734375 4.644 4.976997802734375 4.6530000000000005 M 4.837497802734375 4.7835 C 4.846497802734375 4.7655 4.855497802734375 4.752 4.868997802734375 4.743 C 4.864497802734375 4.7565 4.855497802734375 4.7745 4.837497802734375 4.7835 M 4.900497802734375 4.7205 C 4.900497802734375 4.7295 4.886997802734375 4.743 4.868997802734375 4.743 C 4.877997802734375 4.734 4.8959978027343745 4.716 4.909497802734375 4.7115 C 4.909497802734375 4.7115 4.909497802734375 4.7205 4.900497802734375 4.7205 M 4.859997802734375 4.68 C 4.859997802734375 4.68 4.855497802734375 4.6665 4.8509978027343745 4.6665 C 4.846497802734375 4.671 4.864497802734375 4.644 4.877997802734375 4.644 C 4.868997802734375 4.6530000000000005 4.864497802734375 4.6530000000000005 4.864497802734375 4.662 M 4.904997802734375 4.6845 C 4.909497802734375 4.6755 4.918497802734375 4.671 4.936497802734375 4.662 C 4.927497802734375 4.6755 4.918497802734375 4.6845 4.904997802734375 4.6845 M 6.948107666015625 1.8944999999999999 C 6.957107666015625 1.9034999999999997 6.975107666015624 1.908 6.988607666015625 1.908 C 7.011107666015625 1.908 7.033607666015625 1.8989999999999998 7.033607666015625 1.8809999999999998 C 7.033607666015625 1.7954999999999997 6.858107666015625 1.7685 6.763607666015625 1.7685 C 6.525107666015625 1.7685 6.2056076660156245 1.9349999999999998 6.2056076660156245 2.277 C 6.2056076660156245 2.5199999999999996 6.349607666015625 2.8395 6.349607666015625 3.0149999999999997 C 6.349607666015625 3.114 6.3001076660156246 3.1545 6.219107666015625 3.1545 C 6.160607666015625 3.1545 6.097607666015625 3.1365 6.043607666015625 3.1094999999999997 C 6.039107666015624 3.114 6.030107666015625 3.114 6.025607666015625 3.114 C 6.007607666015625 3.114 5.9941076660156245 3.1005 5.980607666015625 3.1005 C 5.976107666015625 3.1005 5.9716076660156245 3.105 5.967107666015624 3.114 C 6.007607666015625 3.33 6.201107666015624 3.474 6.399107666015625 3.474 C 6.574607666015625 3.474 6.804107666015625 3.357 6.804107666015625 3.033 C 6.804107666015625 2.835 6.664607666015625 2.457 6.664607666015625 2.1914999999999996 C 6.664607666015625 2.0204999999999997 6.727607666015625 1.8944999999999999 6.948107666015625 1.8944999999999999" fill="url(#gradient-ff6f7ecb-9d85-4288-8f9e-e6af92df4dc6)" fill-rule="nonzero"></path></g><g><path d=" M 0.12515625 6.62199609375 L 0.12515625 5.62355859375 L 0.7804687499999999 5.62355859375 L 0.7804687499999999 5.71074609375 L 0.22359374999999998 5.71074609375 L 0.22359374999999998 6.07777734375 L 0.69328125 6.07777734375 L 0.69328125 6.15933984375 L 0.22359374999999998 6.15933984375 L 0.22359374999999998 6.62199609375 L 0.12515625 6.62199609375 M 1.3500171661376954 6.62902734375 Q 1.2445484161376954 6.62902734375 1.1587671661376953 6.58683984375 Q 1.0729859161376953 6.54465234375 1.0111109161376952 6.47223046875 Q 0.9492359161376953 6.39980859375 0.9154859161376953 6.30910546875 Q 0.8817359161376953 6.21840234375 0.8817359161376953 6.12277734375 Q 0.8817359161376953 6.02293359375 0.9168921661376953 5.93223046875 Q 0.9520484161376953 5.84152734375 1.0160327911376954 5.77051171875 Q 1.0800171661376954 5.69949609375 1.1657984161376953 5.65801171875 Q 1.2515796661376952 5.6165273437500005 1.3514234161376952 5.6165273437500005 Q 1.4568921661376952 5.6165273437500005 1.5426734161376952 5.66012109375 Q 1.6284546661376953 5.70371484375 1.6896265411376952 5.77683984375 Q 1.7507984161376953 5.84996484375 1.7845484161376952 5.93996484375 Q 1.8182984161376954 6.02996484375 1.8182984161376954 6.12418359375 Q 1.8182984161376954 6.22402734375 1.7831421661376954 6.31473046875 Q 1.7479859161376954 6.40543359375 1.6847046661376952 6.47644921875 Q 1.6214234161376953 6.54746484375 1.5356421661376953 6.58824609375 Q 1.4498609161376952 6.62902734375 1.3500171661376954 6.62902734375 M 0.9801734161376953 6.12277734375 Q 0.9801734161376953 6.20433984375 1.0068921661376953 6.27957421875 Q 1.0336109161376954 6.35480859375 1.0828296661376953 6.41316796875 Q 1.1320484161376954 6.47152734375 1.2002515411376953 6.50598046875 Q 1.2684546661376952 6.5404335937499996 1.3500171661376954 6.5404335937499996 Q 1.4357984161376953 6.5404335937499996 1.5040015411376952 6.50457421875 Q 1.5722046661376954 6.46871484375 1.6207202911376952 6.40894921875 Q 1.6692359161376953 6.34918359375 1.6945484161376951 6.27465234375 Q 1.7198609161376952 6.20012109375 1.7198609161376952 6.12277734375 Q 1.7198609161376952 6.04121484375 1.6931421661376953 5.96668359375 Q 1.6664234161376954 5.89215234375 1.6165015411376953 5.83308984375 Q 1.5665796661376952 5.77402734375 1.4990796661376953 5.74027734375 Q 1.4315796661376954 5.70652734375 1.3500171661376954 5.70652734375 Q 1.2656421661376953 5.70652734375 1.1974390411376952 5.74168359375 Q 1.1292359161376953 5.77683984375 1.0807202911376952 5.83660546875 Q 1.0322046661376953 5.89637109375 1.0061890411376953 5.97090234375 Q 0.9801734161376953 6.04543359375 0.9801734161376953 6.12277734375 M 2.01795295715332 6.62199609375 L 2.01795295715332 5.62355859375 L 2.43982795715332 5.62355859375 Q 2.50451545715332 5.62355859375 2.55795295715332 5.65027734375 Q 2.6113904571533197 5.67699609375 2.65146858215332 5.72269921875 Q 2.69154670715332 5.76840234375 2.7133435821533203 5.82394921875 Q 2.73514045715332 5.87949609375 2.73514045715332 5.93715234375 Q 2.73514045715332 6.00887109375 2.70771858215332 6.07215234375 Q 2.68029670715332 6.13543359375 2.6303748321533202 6.17902734375 Q 2.58045295715332 6.22262109375 2.51295295715332 6.23668359375 L 2.75764045715332 6.62199609375 L 2.6465467071533197 6.62199609375 L 2.41170295715332 6.25355859375 L 2.11639045715332 6.25355859375 L 2.11639045715332 6.62199609375 L 2.01795295715332 6.62199609375 M 2.11639045715332 6.16637109375 L 2.44264045715332 6.16637109375 Q 2.50170295715332 6.16637109375 2.54529670715332 6.13402734375 Q 2.58889045715332 6.10168359375 2.6127967071533202 6.04894921875 Q 2.63670295715332 5.99621484375 2.63670295715332 5.93715234375 Q 2.63670295715332 5.87668359375 2.60928108215332 5.82535546875 Q 2.58185920715332 5.77402734375 2.53615608215332 5.74238671875 Q 2.49045295715332 5.71074609375 2.43420295715332 5.71074609375 L 2.11639045715332 5.71074609375 L 2.11639045715332 6.16637109375 M 4.073918609619141 6.36465234375 Q 4.073918609619141 6.43918359375 4.035949859619141 6.49754296875 Q 3.9979811096191407 6.55590234375 3.9339967346191402 6.58894921875 Q 3.8700123596191407 6.62199609375 3.7940748596191405 6.62199609375 L 3.3229811096191404 6.62199609375 L 3.3229811096191404 5.62355859375 L 3.8039186096191404 5.62355859375 Q 3.8742311096191404 5.62355859375 3.9255592346191404 5.66082421875 Q 3.9768873596191403 5.69808984375 4.00430923461914 5.75644921875 Q 4.03173110961914 5.81480859375 4.03173110961914 5.87808984375 Q 4.03173110961914 5.95262109375 3.9937623596191405 6.01590234375 Q 3.9557936096191404 6.07918359375 3.8882936096191405 6.11012109375 Q 3.9740748596191406 6.13543359375 4.023996734619141 6.20433984375 Q 4.073918609619141 6.27324609375 4.073918609619141 6.36465234375 M 3.9754811096191407 6.34777734375 Q 3.9754811096191407 6.29715234375 3.9529811096191407 6.25426171875 Q 3.9304811096191408 6.21137109375 3.8918092346191404 6.18465234375 Q 3.8531373596191405 6.15793359375 3.8039186096191404 6.15793359375 L 3.4214186096191406 6.15793359375 L 3.4214186096191406 6.53621484375 L 3.7940748596191405 6.53621484375 Q 3.8446998596191406 6.53621484375 3.8854811096191404 6.50949609375 Q 3.9262623596191406 6.48277734375 3.9508717346191404 6.43988671875 Q 3.9754811096191407 6.39699609375 3.9754811096191407 6.34777734375 M 3.4214186096191406 5.70933984375 L 3.4214186096191406 6.07777734375 L 3.7645436096191407 6.07777734375 Q 3.8137623596191403 6.07777734375 3.8517311096191404 6.05176171875 Q 3.8896998596191406 6.02574609375 3.9121998596191405 5.98355859375 Q 3.9346998596191405 5.94137109375 3.9346998596191405 5.89355859375 Q 3.9346998596191405 5.84293359375 3.9136061096191406 5.80144921875 Q 3.8925123596191407 5.75996484375 3.8559498596191406 5.73465234375 Q 3.8193873596191406 5.70933984375 3.7729811096191406 5.70933984375 L 3.4214186096191406 5.70933984375 M 4.68003433227539 6.62902734375 Q 4.56190933227539 6.62902734375 4.480346832275391 6.58683984375 Q 4.39878433227539 6.54465234375 4.35097183227539 6.47363671875 Q 4.30315933227539 6.40262109375 4.2813624572753906 6.31262109375 Q 4.259565582275391 6.22262109375 4.259565582275391 6.12699609375 L 4.259565582275391 5.62355859375 L 4.3565968322753905 5.62355859375 L 4.3565968322753905 6.12699609375 Q 4.3565968322753905 6.20433984375 4.372768707275391 6.27887109375 Q 4.38894058227539 6.35340234375 4.425503082275391 6.41246484375 Q 4.4620655822753905 6.47152734375 4.52394058227539 6.50598046875 Q 4.585815582275391 6.5404335937499996 4.678628082275391 6.5404335937499996 Q 4.774253082275391 6.5404335937499996 4.836831207275391 6.50457421875 Q 4.899409332275391 6.46871484375 4.935268707275391 6.40965234375 Q 4.97112808227539 6.35058984375 4.98659683227539 6.27676171875 Q 5.0020655822753906 6.20293359375 5.0020655822753906 6.12699609375 L 5.0020655822753906 5.62355859375 L 5.100503082275391 5.62355859375 L 5.100503082275391 6.12699609375 Q 5.100503082275391 6.22683984375 5.078003082275391 6.31824609375 Q 5.055503082275391 6.40965234375 5.005581207275391 6.47855859375 Q 4.95565933227539 6.54746484375 4.87550308227539 6.58824609375 Q 4.79534683227539 6.62902734375 4.68003433227539 6.62902734375 M 5.349416198730468 6.62199609375 L 5.349416198730468 5.62355859375 L 5.447853698730468 5.62355859375 L 5.447853698730468 6.62199609375 L 5.349416198730468 6.62199609375 M 5.712208786010741 6.62199609375 L 5.712208786010741 5.62355859375 L 5.8106462860107415 5.62355859375 L 5.8106462860107415 6.53480859375 L 6.387208786010741 6.53480859375 L 6.387208786010741 6.62199609375 L 5.712208786010741 6.62199609375 M 6.546126022338866 6.62199609375 L 6.546126022338866 5.62355859375 L 6.885032272338866 5.62355859375 Q 7.043938522338866 5.62355859375 7.150110397338866 5.69035546875 Q 7.256282272338866 5.75715234375 7.309719772338866 5.87035546875 Q 7.363157272338866 5.98355859375 7.363157272338866 6.12137109375 Q 7.363157272338866 6.27324609375 7.304797897338866 6.38574609375 Q 7.246438522338866 6.49824609375 7.138860397338866 6.56012109375 Q 7.031282272338866 6.62199609375 6.885032272338866 6.62199609375 L 6.546126022338866 6.62199609375 M 7.264719772338866 6.12137109375 Q 7.264719772338866 6.00183984375 7.220422897338866 5.90902734375 Q 7.176126022338866 5.81621484375 7.091751022338866 5.76348046875 Q 7.007376022338866 5.71074609375 6.885032272338866 5.71074609375 L 6.644563522338866 5.71074609375 L 6.644563522338866 6.53480859375 L 6.885032272338866 6.53480859375 Q 7.008782272338866 6.53480859375 7.093157272338866 6.47996484375 Q 7.177532272338866 6.42512109375 7.221126022338866 6.33160546875 Q 7.264719772338866 6.23808984375 7.264719772338866 6.12137109375 M 7.565695037841795 6.62199609375 L 7.565695037841795 5.62355859375 L 7.6641325378417955 5.62355859375 L 7.6641325378417955 6.62199609375 L 7.565695037841795 6.62199609375 M 8.026925125122068 5.80496484375 L 8.026925125122068 6.62199609375 L 7.928487625122068 6.62199609375 L 7.928487625122068 5.62355859375 L 8.010050125122069 5.62355859375 L 8.665362625122068 6.45605859375 L 8.665362625122068 5.62496484375 L 8.763800125122069 5.62496484375 L 8.763800125122069 6.62199609375 L 8.672393875122069 6.62199609375 L 8.026925125122068 5.80496484375 M 9.42891792297363 6.62902734375 Q 9.32907417297363 6.62902734375 9.24329292297363 6.58613671875 Q 9.15751167297363 6.54324609375 9.09423042297363 6.47012109375 Q 9.030949172973632 6.39699609375 8.996496047973631 6.30699609375 Q 8.96204292297363 6.21699609375 8.96204292297363 6.12137109375 Q 8.96204292297363 6.02012109375 8.996496047973631 5.92941796875 Q 9.030949172973632 5.83871484375 9.09282417297363 5.76840234375 Q 9.154699172973631 5.69808984375 9.23907417297363 5.65730859375 Q 9.32344917297363 5.6165273437500005 9.42329292297363 5.6165273437500005 Q 9.57094917297363 5.6165273437500005 9.663761672973632 5.67699609375 Q 9.75657417297363 5.73746484375 9.804386672973632 5.83449609375 L 9.728449172973631 5.88512109375 Q 9.68063667297363 5.79230859375 9.60048042297363 5.74871484375 Q 9.52032417297363 5.70512109375 9.421886672973631 5.70512109375 Q 9.33891792297363 5.70512109375 9.27212104797363 5.74027734375 Q 9.205324172973631 5.77543359375 9.15751167297363 5.83449609375 Q 9.109699172973631 5.89355859375 9.08508979797363 5.96808984375 Q 9.060480422973631 6.04262109375 9.060480422973631 6.12277734375 Q 9.060480422973631 6.20715234375 9.08860542297363 6.28238671875 Q 9.11673042297363 6.35762109375 9.16876167297363 6.41598046875 Q 9.220792922973631 6.47433984375 9.288996047973631 6.50738671875 Q 9.357199172973631 6.5404335937499996 9.435949172973631 6.5404335937499996 Q 9.527355422973631 6.5404335937499996 9.60891792297363 6.49473046875 Q 9.69048042297363 6.44902734375 9.76501167297363 6.35340234375 L 9.76501167297363 6.45746484375 Q 9.622980422973631 6.62902734375 9.42891792297363 6.62902734375 M 9.74954292297363 6.20715234375 L 9.527355422973631 6.20715234375 L 9.527355422973631 6.13121484375 L 9.83251167297363 6.13121484375 L 9.83251167297363 6.62199609375 L 9.74954292297363 6.62199609375 L 9.74954292297363 6.20715234375 M 10.355648345947262 6.11574609375 Q 10.355648345947262 6.02433984375 10.387288970947262 5.93644921875 Q 10.418929595947263 5.84855859375 10.479398345947263 5.77613671875 Q 10.539867095947264 5.70371484375 10.628460845947263 5.66082421875 Q 10.717054595947262 5.61793359375 10.829554595947263 5.61793359375 Q 10.963148345947262 5.61793359375 11.058070220947263 5.67910546875 Q 11.152992095947262 5.74027734375 11.197992095947264 5.83590234375 L 11.120648345947263 5.88371484375 Q 11.088304595947262 5.81762109375 11.039085845947262 5.77894921875 Q 10.989867095947263 5.74027734375 10.934320220947264 5.72340234375 Q 10.878773345947263 5.70652734375 10.823929595947263 5.70652734375 Q 10.733929595947263 5.70652734375 10.665023345947263 5.74238671875 Q 10.596117095947262 5.77824609375 10.549007720947262 5.83801171875 Q 10.501898345947263 5.89777734375 10.477992095947263 5.97160546875 Q 10.454085845947263 6.04543359375 10.454085845947263 6.12137109375 Q 10.454085845947263 6.20433984375 10.482210845947263 6.28027734375 Q 10.510335845947262 6.35621484375 10.560960845947262 6.41457421875 Q 10.611585845947262 6.47293359375 10.679788970947262 6.50738671875 Q 10.747992095947263 6.54183984375 10.828148345947262 6.54183984375 Q 10.884398345947263 6.54183984375 10.943460845947262 6.52215234375 Q 11.002523345947262 6.50246484375 11.053851470947263 6.46168359375 Q 11.105179595947263 6.42090234375 11.136117095947263 6.35621484375 L 11.217679595947263 6.39840234375 Q 11.186742095947263 6.47293359375 11.122054595947263 6.52496484375 Q 11.057367095947264 6.57699609375 10.977913970947263 6.60371484375 Q 10.898460845947262 6.63043359375 10.822523345947262 6.63043359375 Q 10.719867095947263 6.63043359375 10.634085845947263 6.58613671875 Q 10.548304595947263 6.54183984375 10.485726470947263 6.46801171875 Q 10.423148345947263 6.39418359375 10.389398345947264 6.30207421875 Q 10.355648345947262 6.20996484375 10.355648345947262 6.11574609375 M 11.791399383544919 6.62902734375 Q 11.685930633544919 6.62902734375 11.600149383544919 6.58683984375 Q 11.514368133544918 6.54465234375 11.452493133544918 6.47223046875 Q 11.390618133544919 6.39980859375 11.35686813354492 6.30910546875 Q 11.323118133544918 6.21840234375 11.323118133544918 6.12277734375 Q 11.323118133544918 6.02293359375 11.358274383544918 5.93223046875 Q 11.393430633544918 5.84152734375 11.457415008544919 5.77051171875 Q 11.521399383544919 5.69949609375 11.60718063354492 5.65801171875 Q 11.69296188354492 5.6165273437500005 11.79280563354492 5.6165273437500005 Q 11.89827438354492 5.6165273437500005 11.98405563354492 5.66012109375 Q 12.06983688354492 5.70371484375 12.131008758544919 5.77683984375 Q 12.192180633544918 5.84996484375 12.225930633544918 5.93996484375 Q 12.259680633544919 6.02996484375 12.259680633544919 6.12418359375 Q 12.259680633544919 6.22402734375 12.224524383544919 6.31473046875 Q 12.189368133544919 6.40543359375 12.126086883544918 6.47644921875 Q 12.062805633544919 6.54746484375 11.977024383544919 6.58824609375 Q 11.891243133544918 6.62902734375 11.791399383544919 6.62902734375 M 11.42155563354492 6.12277734375 Q 11.42155563354492 6.20433984375 11.448274383544918 6.27957421875 Q 11.474993133544919 6.35480859375 11.524211883544918 6.41316796875 Q 11.573430633544918 6.47152734375 11.641633758544918 6.50598046875 Q 11.709836883544918 6.5404335937499996 11.791399383544919 6.5404335937499996 Q 11.877180633544919 6.5404335937499996 11.945383758544919 6.50457421875 Q 12.013586883544919 6.46871484375 12.06210250854492 6.40894921875 Q 12.110618133544918 6.34918359375 12.135930633544918 6.27465234375 Q 12.161243133544918 6.20012109375 12.161243133544918 6.12277734375 Q 12.161243133544918 6.04121484375 12.13452438354492 5.96668359375 Q 12.107805633544919 5.89215234375 12.057883758544918 5.83308984375 Q 12.007961883544919 5.77402734375 11.940461883544918 5.74027734375 Q 11.872961883544919 5.70652734375 11.791399383544919 5.70652734375 Q 11.707024383544919 5.70652734375 11.638821258544919 5.74168359375 Q 11.570618133544919 5.77683984375 11.522102508544918 5.83660546875 Q 11.473586883544918 5.89637109375 11.447571258544919 5.97090234375 Q 11.42155563354492 6.04543359375 11.42155563354492 6.12277734375 M 12.557772674560542 5.80496484375 L 12.557772674560542 6.62199609375 L 12.459335174560543 6.62199609375 L 12.459335174560543 5.62355859375 L 12.540897674560544 5.62355859375 L 13.196210174560543 6.45605859375 L 13.196210174560543 5.62496484375 L 13.294647674560544 5.62496484375 L 13.294647674560544 6.62199609375 L 13.203241424560543 6.62199609375 L 12.557772674560542 5.80496484375 M 13.657421722412105 5.80496484375 L 13.657421722412105 6.62199609375 L 13.558984222412105 6.62199609375 L 13.558984222412105 5.62355859375 L 13.640546722412106 5.62355859375 L 14.295859222412105 6.45605859375 L 14.295859222412105 5.62496484375 L 14.394296722412106 5.62496484375 L 14.394296722412106 6.62199609375 L 14.302890472412106 6.62199609375 L 13.657421722412105 5.80496484375 M 15.329414520263668 6.53480859375 L 15.329414520263668 6.62199609375 L 14.658633270263667 6.62199609375 L 14.658633270263667 5.62355859375 L 15.316758270263668 5.62355859375 L 15.316758270263668 5.71074609375 L 14.757070770263667 5.71074609375 L 14.757070770263667 6.0707460937499995 L 15.245039520263667 6.0707460937499995 L 15.245039520263667 6.15371484375 L 14.757070770263667 6.15371484375 L 14.757070770263667 6.53480859375 L 15.329414520263668 6.53480859375 M 15.443365402221675 6.11574609375 Q 15.443365402221675 6.02433984375 15.475006027221674 5.93644921875 Q 15.506646652221676 5.84855859375 15.567115402221676 5.77613671875 Q 15.627584152221676 5.70371484375 15.716177902221675 5.66082421875 Q 15.804771652221675 5.61793359375 15.917271652221675 5.61793359375 Q 16.050865402221675 5.61793359375 16.145787277221675 5.67910546875 Q 16.240709152221676 5.74027734375 16.285709152221674 5.83590234375 L 16.208365402221673 5.88371484375 Q 16.176021652221674 5.81762109375 16.126802902221677 5.77894921875 Q 16.077584152221675 5.74027734375 16.022037277221674 5.72340234375 Q 15.966490402221675 5.70652734375 15.911646652221675 5.70652734375 Q 15.821646652221675 5.70652734375 15.752740402221676 5.74238671875 Q 15.683834152221674 5.77824609375 15.636724777221675 5.83801171875 Q 15.589615402221675 5.89777734375 15.565709152221675 5.97160546875 Q 15.541802902221676 6.04543359375 15.541802902221676 6.12137109375 Q 15.541802902221676 6.20433984375 15.569927902221675 6.28027734375 Q 15.598052902221674 6.35621484375 15.648677902221674 6.41457421875 Q 15.699302902221675 6.47293359375 15.767506027221675 6.50738671875 Q 15.835709152221675 6.54183984375 15.915865402221675 6.54183984375 Q 15.972115402221675 6.54183984375 16.031177902221675 6.52215234375 Q 16.090240402221674 6.50246484375 16.141568527221676 6.46168359375 Q 16.192896652221677 6.42090234375 16.223834152221674 6.35621484375 L 16.305396652221674 6.39840234375 Q 16.274459152221674 6.47293359375 16.209771652221676 6.52496484375 Q 16.145084152221674 6.57699609375 16.065631027221674 6.60371484375 Q 15.986177902221675 6.63043359375 15.910240402221675 6.63043359375 Q 15.807584152221676 6.63043359375 15.721802902221675 6.58613671875 Q 15.636021652221675 6.54183984375 15.573443527221675 6.46801171875 Q 15.510865402221675 6.39418359375 15.477115402221676 6.30207421875 Q 15.443365402221675 6.20996484375 15.443365402221675 6.11574609375 M 17.194090347290032 5.71074609375 L 16.838309097290033 5.71074609375 L 16.838309097290033 6.62199609375 L 16.739871597290033 6.62199609375 L 16.739871597290033 5.71074609375 L 16.384090347290034 5.71074609375 L 16.384090347290034 5.62355859375 L 17.194090347290032 5.62355859375 L 17.194090347290032 5.71074609375 M 17.3571947479248 6.62199609375 L 17.3571947479248 5.62355859375 L 17.4556322479248 5.62355859375 L 17.4556322479248 6.62199609375 L 17.3571947479248 6.62199609375 M 18.122174835205076 6.62902734375 Q 18.016706085205076 6.62902734375 17.930924835205076 6.58683984375 Q 17.845143585205076 6.54465234375 17.783268585205075 6.47223046875 Q 17.721393585205075 6.39980859375 17.687643585205077 6.30910546875 Q 17.653893585205076 6.21840234375 17.653893585205076 6.12277734375 Q 17.653893585205076 6.02293359375 17.689049835205076 5.93223046875 Q 17.724206085205076 5.84152734375 17.788190460205076 5.77051171875 Q 17.852174835205076 5.69949609375 17.937956085205077 5.65801171875 Q 18.023737335205077 5.6165273437500005 18.123581085205075 5.6165273437500005 Q 18.229049835205075 5.6165273437500005 18.314831085205075 5.66012109375 Q 18.400612335205075 5.70371484375 18.461784210205074 5.77683984375 Q 18.522956085205077 5.84996484375 18.556706085205075 5.93996484375 Q 18.590456085205076 6.02996484375 18.590456085205076 6.12418359375 Q 18.590456085205076 6.22402734375 18.555299835205076 6.31473046875 Q 18.520143585205076 6.40543359375 18.456862335205077 6.47644921875 Q 18.393581085205074 6.54746484375 18.307799835205074 6.58824609375 Q 18.222018585205078 6.62902734375 18.122174835205076 6.62902734375 M 17.752331085205075 6.12277734375 Q 17.752331085205075 6.20433984375 17.779049835205075 6.27957421875 Q 17.805768585205076 6.35480859375 17.854987335205077 6.41316796875 Q 17.904206085205075 6.47152734375 17.972409210205075 6.50598046875 Q 18.040612335205076 6.5404335937499996 18.122174835205076 6.5404335937499996 Q 18.207956085205076 6.5404335937499996 18.276159210205076 6.50457421875 Q 18.344362335205076 6.46871484375 18.392877960205077 6.40894921875 Q 18.441393585205077 6.34918359375 18.466706085205075 6.27465234375 Q 18.492018585205077 6.20012109375 18.492018585205077 6.12277734375 Q 18.492018585205077 6.04121484375 18.465299835205077 5.96668359375 Q 18.438581085205076 5.89215234375 18.388659210205077 5.83308984375 Q 18.338737335205074 5.77402734375 18.271237335205075 5.74027734375 Q 18.203737335205076 5.70652734375 18.122174835205076 5.70652734375 Q 18.037799835205075 5.70652734375 17.969596710205074 5.74168359375 Q 17.901393585205074 5.77683984375 17.852877960205078 5.83660546875 Q 17.804362335205077 5.89637109375 17.778346710205074 5.97090234375 Q 17.752331085205075 6.04543359375 17.752331085205075 6.12277734375 M 18.8885481262207 5.80496484375 L 18.8885481262207 6.62199609375 L 18.790110626220702 6.62199609375 L 18.790110626220702 5.62355859375 L 18.871673126220703 5.62355859375 L 19.526985626220704 6.45605859375 L 19.526985626220704 5.62496484375 L 19.625423126220703 5.62496484375 L 19.625423126220703 6.62199609375 L 19.5340168762207 6.62199609375 L 18.8885481262207 5.80496484375 M 20.473353424072265 5.81058984375 Q 20.452259674072266 5.78668359375 20.424134674072267 5.76769921875 Q 20.396009674072268 5.74871484375 20.360853424072268 5.73465234375 Q 20.325697174072268 5.72058984375 20.285619049072267 5.71215234375 Q 20.245540924072266 5.70371484375 20.200540924072268 5.70371484375 Q 20.069759674072266 5.70371484375 20.008587799072266 5.75363671875 Q 19.947415924072267 5.80355859375 19.947415924072267 5.88933984375 Q 19.947415924072267 5.94840234375 19.976244049072267 5.98215234375 Q 20.005072174072268 6.01590234375 20.066947174072265 6.03699609375 Q 20.128822174072265 6.05808984375 20.224447174072267 6.08058984375 Q 20.331322174072266 6.10308984375 20.408665924072267 6.13402734375 Q 20.486009674072267 6.16496484375 20.528197174072265 6.21769921875 Q 20.570384674072265 6.27043359375 20.570384674072265 6.36043359375 Q 20.570384674072265 6.42933984375 20.543665924072265 6.47996484375 Q 20.516947174072268 6.53058984375 20.469134674072265 6.56433984375 Q 20.421322174072266 6.59808984375 20.355228424072266 6.61426171875 Q 20.289134674072265 6.63043359375 20.210384674072266 6.63043359375 Q 20.133040924072265 6.63043359375 20.062025299072268 6.61426171875 Q 19.991009674072266 6.59808984375 19.927728424072267 6.56644921875 Q 19.864447174072268 6.53480859375 19.809603424072268 6.48558984375 L 19.858822174072266 6.40543359375 Q 19.885540924072266 6.43355859375 19.922806549072266 6.45816796875 Q 19.960072174072266 6.48277734375 20.005775299072265 6.50246484375 Q 20.051478424072265 6.52215234375 20.104212799072265 6.53269921875 Q 20.156947174072265 6.54324609375 20.213197174072267 6.54324609375 Q 20.332728424072265 6.54324609375 20.399525299072266 6.49965234375 Q 20.466322174072268 6.45605859375 20.466322174072268 6.37027734375 Q 20.466322174072268 6.30840234375 20.432572174072266 6.27113671875 Q 20.398822174072265 6.23387109375 20.331322174072266 6.20996484375 Q 20.263822174072267 6.18605859375 20.165384674072268 6.16355859375 Q 20.061322174072266 6.13965234375 19.989603424072268 6.11012109375 Q 19.917884674072265 6.08058984375 19.882025299072268 6.03207421875 Q 19.846165924072267 5.98355859375 19.846165924072267 5.90340234375 Q 19.846165924072267 5.81058984375 19.891869049072266 5.74660546875 Q 19.937572174072265 5.68262109375 20.017728424072267 5.64957421875 Q 20.097884674072265 5.6165273437500005 20.201947174072266 5.6165273437500005 Q 20.268040924072267 5.6165273437500005 20.324994049072266 5.62988671875 Q 20.381947174072266 5.64324609375 20.430462799072266 5.66855859375 Q 20.478978424072267 5.69387109375 20.521165924072267 5.73183984375 L 20.473353424072265 5.81058984375" fill="#23953c" fill-rule="nonzero"></path></g><g clip-path="url(&quot;#SvgjsClipPath1001&quot;)"><g clip-path="url(&quot;#SvgjsClipPath1000f39350ec-3182-4ccc-9155-4ed2be21590a&quot;)"><path d=" M -5.45553543565611 6.1244586598315935 L -6.107785769756224 5.472208325731483 L -4.065212355074299 3.4296349110495554 L -4.060163977875389 3.4245865338506385 C -4.011782314245166 3.3875201947514957 -3.9834115300795903 3.3300448456321954 -3.9834115300795903 3.269096516123987 C -3.9834115300795903 3.2081481866157784 -4.011782314245166 3.150672837496478 -4.060163977875389 3.1136064983973353 L -4.717462689174413 2.4563077870983063 L -5.374761400473436 1.7990090757992778 C -5.4118277395725825 1.7506274121690473 -5.4693030886918885 1.7222566280034672 -5.5302514182000975 1.7222566280034672 C -5.591199747708307 1.7222566280034672 -5.6486750968276125 1.7506274121690473 -5.685741435926745 1.7990090757992774 L -7.611192499593786 3.7244601394663244 C -7.8292823945870085 3.5077164783928088 -8.046699172620375 3.2902997003594394 -8.263442833693901 3.0722098053662137 L -5.890705550202778 0.6843273902783445 C -5.800134140332006 0.5778146203226459 -5.670686674888029 0.5120000381727565 -5.531261093639873 0.5015761356775394 L -3.3099751261162798 0.5066245128764565 C -3.1655816694009147 0.490019009524333 -3.0226257518172464 0.5478096996113486 -2.9303371607576816 0.6600951797235415 L -0.6525093686062124 2.9379229718750133 C -0.5528110440766056 3.017226459148543 -0.49471807755435293 3.1376655107992284 -0.49471807755435293 3.265057814364853 C -0.49471807755435293 3.3924501179304776 -0.5528110440766056 3.512889169581161 -0.6525093686062124 3.592192656854692 C -0.6760858672640282 3.6250146859562014 -0.7024339827684365 3.6557541540446863 -0.7312640529093333 3.684073121874986 L -2.813214809742812 5.767033554148252 L -2.813214809742812 5.767033554148252 L -2.813214809742812 5.767033554148252 L -3.00404346786188 5.956852536827541 C -3.080526069634148 6.043731120428723 -3.186068703943083 6.099733334551835 -3.3008880471582085 6.11436190543376 L -3.3008880471582085 6.11436190543376 C -3.317700822990794 6.1153716819421655 -3.3345590433147994 6.1153716819421655 -3.3513718191473707 6.11436190543376 Z" fill="#2c7b5b" transform="matrix(1,0,0,1,0,0)" fill-rule="evenodd"></path></g><g clip-path="url(&quot;#SvgjsClipPath1000f39350ec-3182-4ccc-9155-4ed2be21590a&quot;)"><path d=" M -8.133194701961827 5.960891238586674 C -8.048944850421307 6.064943786524223 -7.920686935231007 6.123345714340477 -7.786887566760953 6.118581345136795 C -7.653088198290897 6.113816975933114 -7.529309041657234 6.046440434283365 -7.452673455547782 5.936659028031872 L -5.074887794857736 3.5588733673418367 C -5.291631455931261 3.340783472348612 -5.509048233964628 3.1233666943152407 -5.727138128957851 2.906623033241726 L -7.645521464546416 4.825006368830288 L -7.645521464546416 4.825006368830288 C -7.683879229908957 4.871668864634653 -7.74111179467987 4.898709694644019 -7.801516319992966 4.898709694644019 C -7.861920845306061 4.898709694644019 -7.919153410076974 4.871668864634653 -7.957511175439501 4.825006368830288 L -8.614809886738524 4.16770765753126 L -9.272108598037548 3.5104089462322317 C -9.32010300891123 3.4733163526223234 -9.348204971547236 3.4160811975576753 -9.348204971547236 3.3554237662254716 C -9.348204971547236 3.294766334893267 -9.32010300891123 3.237531179828619 -9.272108598037548 3.2004385862187115 L -7.223477130716937 1.1518071188980832 L -7.875727464817038 0.49955678479797205 L -10.375683853720878 2.9995131737018044 C -10.485613914536962 3.076199947046181 -10.553166945083115 3.2000453631444006 -10.558127816564927 3.333988893152913 C -10.563088688046724 3.4679324231614257 -10.50488190206274 3.5964356102422435 -10.400925739715465 3.6810440955556354 Z" fill="#589f43" transform="matrix(1,0,0,1,0,0)" fill-rule="evenodd"></path></g></g></g><defs><linearGradient id="gradient-ff6f7ecb-9d85-4288-8f9e-e6af92df4dc6" x1="0" y1="0" x2="1" y2="1"><stop stop-color="#f7ca4d" offset="0"></stop><stop stop-color="#3e7742" offset="1"></stop></linearGradient><clipPath id="SvgjsClipPath1001"><path d=" M -10.569541538159301 0.5015761356775394 h 10.074541538159302 v 5.618843822394921 h -10.074541538159302 Z"></path></clipPath><clipPath id="SvgjsClipPath1000f39350ec-3182-4ccc-9155-4ed2be21590a"><path d=" M -10.569541538159301 0.5015761356775394 L -0.4949999999999992 0.5015761356775394 L -0.4949999999999992 6.1204199580724605 L -10.569541538159301 6.1204199580724605 Z"></path></clipPath></defs></svg>