<?xml version="1.0" standalone="no"?>
<!DOCTYPE svg PUBLIC "-//W3C//DTD SVG 20010904//EN"
 "http://www.w3.org/TR/2001/REC-SVG-20010904/DTD/svg10.dtd">
<svg version="1.0" xmlns="http://www.w3.org/2000/svg"
 width="2176.000000pt" height="2176.000000pt" viewBox="0 0 2176.000000 2176.000000"
 preserveAspectRatio="xMidYMid meet">
<metadata>
Created by potrace 1.14, written by Peter Selinger 2001-2017
</metadata>
<g transform="translate(0.000000,2176.000000) scale(0.100000,-0.100000)"
fill="#000000" stroke="none">
<path d="M9650 12971 c-30 -10 -75 -28 -100 -41 -58 -29 -166 -139 -212 -215
-135 -222 -238 -677 -269 -1186 -13 -213 -3 -424 26 -594 20 -110 75 -280 118
-359 29 -53 36 -60 67 -62 129 -11 144 -11 172 3 26 13 31 13 47 -1 20 -18 41
-21 41 -6 0 6 -8 27 -19 48 -31 62 -68 191 -87 307 -14 86 -18 168 -19 375 l0
265 107 215 c165 332 264 604 317 875 44 223 44 288 -1 345 -42 53 -92 61
-188 31z m36 -287 c-26 -171 -121 -507 -206 -724 -40 -104 -41 -104 -35 -50 9
86 71 382 109 520 55 199 125 375 142 357 3 -2 -2 -49 -10 -103z m-559 -1576
c-3 -8 -6 -5 -6 6 -1 11 2 17 5 13 3 -3 4 -12 1 -19z m30 -110 c-3 -8 -6 -5
-6 6 -1 11 2 17 5 13 3 -3 4 -12 1 -19z m-10 -90 c-3 -8 -6 -5 -6 6 -1 11 2
17 5 13 3 -3 4 -12 1 -19z m48 -78 c9 -30 24 -70 32 -88 9 -18 13 -35 10 -39
-11 -11 -60 112 -63 157 -1 25 -1 41 1 35 2 -5 11 -35 20 -65z"/>
<path d="M4076 12664 c-27 -8 -65 -26 -85 -39 -31 -20 -554 -542 -1361 -1358
l-235 -237 213 -212 212 -213 638 636 c374 375 647 639 661 642 64 15 69 11
533 -451 246 -246 455 -461 464 -480 37 -78 65 -45 -672 -782 l-674 -675 208
-208 208 -208 714 3 715 3 50 27 c37 19 264 241 856 835 886 887 844 840 843
963 -1 115 26 85 -827 938 -652 651 -790 785 -832 803 -50 22 -51 22 -815 26
-672 2 -771 1 -814 -13z"/>
<path d="M1798 11833 l-837 -838 -16 -59 c-21 -73 -16 -146 16 -207 28 -56
1556 -1591 1614 -1622 57 -31 183 -31 240 0 23 13 374 356 835 817 l795 796
-213 212 -212 213 -635 -635 -635 -635 -55 0 -55 0 -455 455 c-315 315 -458
465 -466 488 -7 23 -7 41 0 65 8 22 211 232 681 702 l670 670 -207 207 c-114
115 -212 208 -218 208 -6 0 -387 -377 -847 -837z"/>
<path d="M8075 12591 c-73 -18 -128 -65 -139 -119 -55 -279 -160 -825 -175
-912 -57 -328 -86 -642 -79 -845 6 -140 19 -191 59 -219 28 -19 43 -21 36 -3
-3 9 6 11 34 9 39 -4 44 1 40 36 -3 17 19 15 41 -5 13 -12 21 -14 30 -5 7 7
19 7 36 1 14 -5 28 -6 31 -2 3 4 30 9 59 10 102 2 117 6 114 28 -16 101 -24
227 -16 235 11 11 47 3 40 -9 -2 -3 7 -7 21 -7 13 -1 30 -10 37 -20 8 -11 21
-15 35 -11 11 3 21 1 21 -4 0 -5 7 -9 15 -9 8 0 12 -6 9 -15 -5 -12 9 -13 93
-9 193 9 314 67 408 195 53 72 127 254 95 234 -15 -9 -12 12 6 51 14 30 15 43
5 97 -32 166 -148 295 -337 372 l-55 22 50 38 c71 55 127 127 175 225 39 80
41 90 41 175 0 77 -4 98 -27 148 -36 76 -79 130 -134 168 -56 38 -145 69 -200
69 -37 0 -45 4 -56 28 -22 46 -69 62 -183 61 -55 -1 -113 -4 -130 -8z m450
-288 c22 -16 50 -48 63 -73 30 -58 27 -143 -8 -213 -44 -88 -161 -178 -263
-203 -28 -6 -28 -6 -23 27 11 64 77 444 82 473 6 28 7 28 58 22 32 -3 66 -16
91 -33z m-132 -808 c206 -54 304 -200 233 -350 -57 -124 -249 -224 -428 -225
l-46 0 5 43 c12 107 75 531 79 539 8 13 95 9 157 -7z"/>
<path d="M11923 11860 c-115 -24 -206 -90 -252 -182 -17 -33 -31 -69 -31 -78
0 -9 -19 -27 -42 -40 -54 -30 -241 -154 -290 -192 l-36 -28 -7 62 c-3 35 -7
134 -9 220 -3 168 -5 177 -57 204 -37 19 -187 18 -264 -1 -81 -20 -228 -94
-300 -150 -53 -41 -95 -60 -80 -35 8 13 -5 13 -101 -1 -51 -7 -121 -28 -204
-62 -69 -28 -143 -52 -165 -53 -22 -2 -44 -3 -49 -3 -4 -1 -6 -7 -3 -13 10
-29 -14 -229 -38 -312 -26 -90 -119 -286 -136 -286 -14 0 -11 116 7 214 43
246 148 450 284 550 52 38 65 44 95 39 27 -4 36 -2 41 12 11 27 -26 51 -101
65 -78 15 -150 7 -211 -22 -261 -122 -444 -680 -303 -926 32 -57 66 -79 134
-88 36 -5 55 -2 97 19 73 36 103 67 143 148 59 120 84 301 62 461 -6 48 -5 57
8 52 28 -11 116 16 166 51 28 19 56 35 62 35 6 0 18 6 26 14 18 15 124 56 147
56 10 0 -1 -20 -32 -57 -99 -122 -141 -267 -93 -327 35 -44 73 -55 154 -47
110 13 189 60 390 235 148 129 135 133 135 -45 l0 -151 -59 -67 c-167 -190
-354 -460 -447 -648 -31 -62 -60 -110 -64 -108 -11 7 -48 -85 -48 -115 1 -14
-2 -45 -6 -70 -7 -48 -4 -44 26 38 26 70 32 61 12 -18 -9 -34 -14 -88 -12
-119 3 -54 -11 -91 -35 -91 -18 0 -37 -30 -37 -61 0 -23 9 -40 35 -65 19 -18
43 -33 53 -34 9 0 40 -3 69 -6 67 -8 108 7 185 64 287 210 456 527 513 962 8
62 15 138 15 167 0 49 4 57 43 100 23 25 108 99 188 164 l146 118 36 -137 c48
-186 50 -205 33 -246 -19 -47 -58 -53 -151 -26 -38 11 -73 16 -77 12 -14 -14
22 -100 61 -144 131 -148 361 -124 446 46 41 83 39 168 -10 386 -81 359 -53
470 119 474 57 1 61 2 61 25 0 48 -138 83 -242 61z m-958 -189 c-85 -83 -242
-224 -260 -233 -33 -17 114 129 200 198 85 68 108 82 60 35z m68 -833 c-46
-201 -172 -471 -303 -647 -74 -101 -144 -170 -148 -148 -11 53 79 270 178 427
50 81 268 390 275 390 2 0 1 -10 -2 -22z m2 -555 c-58 -89 -85 -126 -85 -117
0 6 8 22 18 35 10 13 29 43 42 67 13 23 28 42 33 42 5 0 1 -12 -8 -27z"/>
<path d="M7757 9404 c-4 -4 -7 -151 -7 -326 l0 -319 38 3 37 3 3 143 3 142
144 0 145 0 0 35 0 35 -145 0 -145 0 0 110 0 110 176 0 175 0 -3 33 -3 32
-206 3 c-113 1 -208 -1 -212 -4z"/>
<path d="M8442 9394 c-65 -24 -144 -102 -177 -176 -73 -162 2 -371 157 -438
150 -66 314 1 389 159 33 69 38 188 10 262 -26 68 -86 139 -148 176 -57 33
-165 41 -231 17z m187 -73 c112 -58 167 -202 125 -328 -56 -167 -234 -225
-355 -116 -54 48 -81 104 -86 178 -13 158 87 285 224 285 33 0 68 -7 92 -19z"/>
<path d="M8967 9403 c-4 -3 -7 -150 -7 -325 l0 -318 35 0 35 0 0 115 0 115 93
0 94 0 73 -115 c72 -114 73 -115 111 -115 22 0 39 2 39 5 0 3 -33 58 -74 123
l-75 116 27 12 c58 24 112 112 112 183 0 81 -71 180 -145 200 -43 12 -307 15
-318 4z m345 -100 c27 -27 32 -41 36 -92 3 -48 0 -66 -17 -94 -30 -49 -57 -57
-186 -57 l-115 0 0 141 0 141 125 -4 125 -3 32 -32z"/>
<path d="M9797 9403 c-4 -3 -7 -150 -7 -325 l0 -318 175 0 c204 0 240 9 286
73 24 33 29 50 29 96 0 64 -21 106 -69 142 l-31 23 29 30 c85 90 47 244 -67
276 -41 11 -335 14 -345 3z m354 -92 c24 -25 29 -38 29 -79 0 -41 -5 -55 -29
-81 l-29 -31 -126 0 -126 0 0 110 0 110 126 0 c125 0 126 0 155 -29z m25 -292
c24 -25 29 -39 29 -79 0 -43 -5 -54 -33 -82 l-32 -33 -135 -3 -135 -4 0 116 0
116 138 0 138 0 30 -31z"/>
<path d="M10394 9395 c-3 -8 -4 -106 -2 -217 5 -239 18 -288 92 -356 52 -48
102 -66 181 -66 77 0 128 18 177 62 81 74 100 154 96 412 l-3 175 -31 3 -32 3
-4 -208 c-6 -239 -15 -280 -78 -337 -68 -61 -182 -61 -250 1 -62 55 -72 97
-77 336 l-5 207 -30 0 c-16 0 -31 -6 -34 -15z"/>
<path d="M11090 9086 l0 -326 35 0 35 0 -2 323 -3 322 -32 3 -33 3 0 -325z"/>
<path d="M11320 9085 l0 -325 220 0 220 0 0 30 0 30 -182 2 -183 3 -3 293 -2
292 -35 0 -35 0 0 -325z"/>
<path d="M11858 9404 c-5 -4 -8 -151 -8 -327 l0 -319 163 3 c160 4 163 4 217
35 109 61 156 161 148 313 -7 135 -63 223 -173 272 -42 19 -72 23 -195 27 -80
2 -148 1 -152 -4z m305 -80 c58 -20 109 -75 132 -144 37 -113 -1 -257 -85
-315 -43 -30 -137 -48 -226 -43 l-59 3 -3 258 -2 257 98 0 c63 0 115 -6 145
-16z"/>
<path d="M12507 9404 c-4 -4 -7 -151 -7 -326 l0 -319 38 3 37 3 0 320 0 320
-30 3 c-17 2 -34 0 -38 -4z"/>
<path d="M12737 9404 c-4 -4 -7 -151 -7 -326 l0 -318 40 0 40 0 2 250 3 250
196 -247 c187 -237 197 -248 232 -251 l37 -3 -2 323 -3 323 -35 0 -35 0 -5
-254 -5 -254 -200 254 c-157 199 -206 255 -225 257 -14 2 -29 0 -33 -4z"/>
<path d="M13609 9396 c-211 -75 -281 -345 -138 -526 99 -125 252 -151 380 -65
l49 34 0 -40 c0 -37 2 -39 30 -39 l30 0 0 160 0 161 -102 -3 c-102 -3 -103 -3
-103 -28 0 -24 3 -25 73 -28 l72 -3 0 -48 c0 -43 -4 -52 -35 -80 -100 -87
-213 -92 -305 -14 -66 57 -85 103 -85 208 0 73 4 98 22 130 44 82 112 125 199
125 72 0 133 -28 165 -75 13 -19 26 -35 29 -35 3 0 16 9 29 19 29 22 21 42
-44 99 -67 59 -179 79 -266 48z"/>
<path d="M14504 9400 c-88 -27 -180 -123 -205 -213 -66 -236 124 -473 342
-428 72 15 158 67 183 110 l20 34 -23 18 c-30 25 -34 24 -54 -11 -38 -64 -151
-103 -233 -81 -51 14 -119 71 -146 125 -29 56 -35 159 -14 222 21 64 69 122
120 145 88 40 211 14 258 -54 12 -18 23 -33 24 -35 4 -6 54 30 54 39 0 18 -75
91 -114 111 -46 24 -161 33 -212 18z"/>
<path d="M15117 9396 c-219 -81 -286 -365 -127 -539 84 -92 181 -123 286 -92
234 68 310 364 141 552 -71 79 -205 114 -300 79z m171 -72 c73 -30 122 -97
143 -193 34 -158 -93 -322 -239 -307 -131 12 -212 114 -212 265 1 179 157 299
308 235z"/>
<path d="M15630 9085 l0 -325 35 0 35 0 2 252 3 253 199 -253 c190 -240 201
-252 233 -252 l33 0 -2 323 -3 322 -30 0 -30 0 -5 -259 -5 -259 -205 261
c-179 229 -208 262 -232 262 l-28 0 0 -325z"/>
<path d="M16337 9403 c-4 -3 -7 -150 -7 -325 l0 -318 35 0 35 0 2 254 3 253
200 -253 c188 -239 202 -254 233 -254 l32 0 -2 323 -3 322 -30 0 -30 0 -5
-257 -5 -258 -204 260 c-155 197 -210 260 -226 260 -12 0 -25 -3 -28 -7z"/>
<path d="M17037 9403 c-4 -3 -7 -150 -7 -325 l0 -318 220 0 220 0 0 30 0 30
-182 2 -183 3 0 115 0 115 158 3 157 3 0 29 0 29 -157 3 -158 3 -3 108 -3 107
181 0 180 0 0 35 0 35 -208 0 c-115 0 -212 -3 -215 -7z"/>
<path d="M17760 9401 c-91 -30 -155 -87 -196 -175 -76 -165 -7 -362 158 -447
64 -34 165 -32 238 3 62 30 76 41 108 82 28 37 28 42 -6 60 -27 14 -29 14 -46
-15 -38 -64 -162 -105 -241 -79 -53 17 -114 76 -141 135 -48 101 -24 246 52
317 90 84 234 76 312 -18 29 -36 30 -36 56 -19 14 10 26 21 26 26 0 18 -75 91
-114 111 -45 23 -162 34 -206 19z"/>
<path d="M18134 9396 c-3 -8 -4 -23 -2 -33 3 -16 16 -18 116 -21 l112 -3 0
-289 0 -290 35 0 35 0 0 290 0 290 116 0 115 0 -3 33 -3 32 -258 3 c-218 2
-258 0 -263 -12z"/>
<path d="M18755 9398 c-3 -7 -4 -153 -3 -323 l3 -310 38 -3 37 -3 -2 323 -3
323 -33 3 c-20 2 -34 -2 -37 -10z"/>
<path d="M19170 9401 c-48 -16 -87 -40 -127 -81 -200 -199 -70 -561 202 -564
33 0 77 6 98 13 63 21 129 82 167 152 33 61 35 69 35 159 -1 110 -19 161 -81
230 -60 66 -114 93 -198 96 -39 2 -82 0 -96 -5z m169 -80 c92 -48 150 -160
137 -268 -24 -204 -228 -301 -367 -176 -54 49 -81 104 -87 180 -6 78 9 134 53
194 60 84 176 114 264 70z"/>
<path d="M19670 9085 l0 -325 35 0 35 0 2 254 3 253 200 -253 c188 -239 202
-254 233 -254 l32 0 -2 323 -3 322 -30 0 -30 0 -5 -257 -5 -258 -204 260
c-181 231 -208 260 -233 260 l-28 0 0 -325z"/>
<path d="M20476 9395 c-87 -31 -130 -88 -130 -171 0 -93 39 -126 198 -170 162
-44 196 -67 196 -132 0 -110 -203 -139 -341 -48 -21 14 -41 26 -44 26 -2 0
-12 -11 -21 -25 -16 -24 -16 -27 2 -41 121 -95 335 -108 428 -26 34 31 59 100
51 147 -12 86 -51 113 -230 161 -92 26 -125 39 -142 59 -33 37 -30 87 6 127
27 30 34 33 105 36 79 4 117 -5 169 -41 27 -19 29 -19 42 -1 21 27 18 40 -11
63 -60 47 -198 65 -278 36z"/>
</g>
</svg>
